<?xml version="1.0" encoding="UTF-8"?><svg xmlns="http://www.w3.org/2000/svg" xmlns:xlink="http://www.w3.org/1999/xlink" fill-opacity="1" color-rendering="auto" color-interpolation="auto" text-rendering="auto" stroke="black" stroke-linecap="square" width="913" stroke-miterlimit="10" shape-rendering="auto" stroke-opacity="1" fill="black" stroke-dasharray="none" font-weight="normal" stroke-width="1" height="515" font-family="'Dialog'" font-style="normal" stroke-linejoin="miter" font-size="12px" stroke-dashoffset="0" image-rendering="auto">
  <!--Generated by ySVG 2.6-->
  <defs id="genericDefs"/>
  <g>
    <defs id="defs1">
      <linearGradient x1="399" gradientUnits="userSpaceOnUse" x2="479" y1="97" y2="137" id="linearGradient1" spreadMethod="reflect">
        <stop stop-opacity="1" stop-color="rgb(204,255,204)" offset="0%"/>
        <stop stop-opacity="1" stop-color="rgb(153,204,0)" offset="100%"/>
      </linearGradient>
      <linearGradient x1="503.7294" gradientUnits="userSpaceOnUse" x2="637.4894" y1="97" y2="137" id="linearGradient2" spreadMethod="reflect">
        <stop stop-opacity="1" stop-color="rgb(232,238,247)" offset="0%"/>
        <stop stop-opacity="1" stop-color="rgb(183,201,227)" offset="100%"/>
      </linearGradient>
      <linearGradient x1="662.2188" gradientUnits="userSpaceOnUse" x2="795.9788" y1="93.392" y2="148.24" id="linearGradient3" spreadMethod="reflect">
        <stop stop-opacity="1" stop-color="rgb(232,238,247)" offset="0%"/>
        <stop stop-opacity="1" stop-color="rgb(183,201,227)" offset="100%"/>
      </linearGradient>
      <linearGradient x1="820.7083" gradientUnits="userSpaceOnUse" x2="954.4683" y1="78.78" y2="162.852" id="linearGradient4" spreadMethod="reflect">
        <stop stop-opacity="1" stop-color="rgb(232,238,247)" offset="0%"/>
        <stop stop-opacity="1" stop-color="rgb(183,201,227)" offset="100%"/>
      </linearGradient>
      <linearGradient x1="984.4683" gradientUnits="userSpaceOnUse" x2="1118.2283" y1="93.392" y2="148.24" id="linearGradient5" spreadMethod="reflect">
        <stop stop-opacity="1" stop-color="rgb(232,238,247)" offset="0%"/>
        <stop stop-opacity="1" stop-color="rgb(183,201,227)" offset="100%"/>
      </linearGradient>
      <linearGradient x1="1148.2283" gradientUnits="userSpaceOnUse" x2="1281.9883" y1="77.008" y2="164.624" id="linearGradient6" spreadMethod="reflect">
        <stop stop-opacity="1" stop-color="rgb(232,238,247)" offset="0%"/>
        <stop stop-opacity="1" stop-color="rgb(183,201,227)" offset="100%"/>
      </linearGradient>
      <linearGradient x1="1148.2283" gradientUnits="userSpaceOnUse" x2="1281.9883" y1="245.872" y2="304.56" id="linearGradient7" spreadMethod="reflect">
        <stop stop-opacity="1" stop-color="rgb(232,238,247)" offset="0%"/>
        <stop stop-opacity="1" stop-color="rgb(183,201,227)" offset="100%"/>
      </linearGradient>
      <linearGradient x1="1148.2283" gradientUnits="userSpaceOnUse" x2="1281.9883" y1="194.624" y2="215.872" id="linearGradient8" spreadMethod="reflect">
        <stop stop-opacity="1" stop-color="rgb(232,238,247)" offset="0%"/>
        <stop stop-opacity="1" stop-color="rgb(183,201,227)" offset="100%"/>
      </linearGradient>
      <linearGradient x1="984.4683" gradientUnits="userSpaceOnUse" x2="1118.2283" y1="232.5549" y2="317.8771" id="linearGradient9" spreadMethod="reflect">
        <stop stop-opacity="1" stop-color="rgb(232,238,247)" offset="0%"/>
        <stop stop-opacity="1" stop-color="rgb(183,201,227)" offset="100%"/>
      </linearGradient>
      <linearGradient x1="820.7083" gradientUnits="userSpaceOnUse" x2="954.4683" y1="247.792" y2="302.64" id="linearGradient10" spreadMethod="reflect">
        <stop stop-opacity="1" stop-color="rgb(232,238,247)" offset="0%"/>
        <stop stop-opacity="1" stop-color="rgb(183,201,227)" offset="100%"/>
      </linearGradient>
      <linearGradient x1="656.9482" gradientUnits="userSpaceOnUse" x2="790.7083" y1="239.6" y2="310.832" id="linearGradient11" spreadMethod="reflect">
        <stop stop-opacity="1" stop-color="rgb(232,238,247)" offset="0%"/>
        <stop stop-opacity="1" stop-color="rgb(183,201,227)" offset="100%"/>
      </linearGradient>
      <linearGradient x1="493.1883" gradientUnits="userSpaceOnUse" x2="626.9482" y1="264.592" y2="285.84" id="linearGradient12" spreadMethod="reflect">
        <stop stop-opacity="1" stop-color="rgb(232,238,247)" offset="0%"/>
        <stop stop-opacity="1" stop-color="rgb(183,201,227)" offset="100%"/>
      </linearGradient>
      <linearGradient x1="495.3745" gradientUnits="userSpaceOnUse" x2="624.762" y1="315.84" y2="380.5338" id="linearGradient13" spreadMethod="reflect">
        <stop stop-opacity="1" stop-color="rgb(255,204,0)" offset="0%"/>
        <stop stop-opacity="1" stop-color="rgb(255,153,0)" offset="100%"/>
      </linearGradient>
      <linearGradient x1="656.9482" gradientUnits="userSpaceOnUse" x2="790.7083" y1="429.2538" y2="450.5018" id="linearGradient14" spreadMethod="reflect">
        <stop stop-opacity="1" stop-color="rgb(232,238,247)" offset="0%"/>
        <stop stop-opacity="1" stop-color="rgb(183,201,227)" offset="100%"/>
      </linearGradient>
      <linearGradient x1="493.1883" gradientUnits="userSpaceOnUse" x2="626.9482" y1="410.5338" y2="469.2218" id="linearGradient15" spreadMethod="reflect">
        <stop stop-opacity="1" stop-color="rgb(232,238,247)" offset="0%"/>
        <stop stop-opacity="1" stop-color="rgb(183,201,227)" offset="100%"/>
      </linearGradient>
      <linearGradient x1="820.7083" gradientUnits="userSpaceOnUse" x2="1027.1006" y1="388.2797" y2="491.4758" id="linearGradient16" spreadMethod="reflect">
        <stop stop-opacity="1" stop-color="rgb(255,204,0)" offset="0%"/>
        <stop stop-opacity="1" stop-color="rgb(255,153,0)" offset="100%"/>
      </linearGradient>
      <linearGradient x1="883.9044" gradientUnits="userSpaceOnUse" x2="963.9044" y1="521.4758" y2="561.4758" id="linearGradient17" spreadMethod="reflect">
        <stop stop-opacity="1" stop-color="rgb(204,255,204)" offset="0%"/>
        <stop stop-opacity="1" stop-color="rgb(153,204,0)" offset="100%"/>
      </linearGradient>
      <clipPath clipPathUnits="userSpaceOnUse" id="clipPath1">
        <path d="M0 0 L913 0 L913 515 L0 515 L0 0 Z"/>
      </clipPath>
      <clipPath clipPathUnits="userSpaceOnUse" id="clipPath2">
        <path d="M384 62 L1297 62 L1297 577 L384 577 L384 62 Z"/>
      </clipPath>
    </defs>
    <g fill="white" text-rendering="geometricPrecision" shape-rendering="geometricPrecision" transform="translate(-384,-62)" stroke="white">
      <rect x="384" width="913" height="515" y="62" clip-path="url(#clipPath2)" stroke="none"/>
    </g>
    <g fill="url(#linearGradient1)" text-rendering="geometricPrecision" shape-rendering="geometricPrecision" transform="matrix(1,0,0,1,-384,-62)" stroke="url(#linearGradient1)">
      <ellipse rx="40" ry="20" clip-path="url(#clipPath2)" cx="439" cy="117" stroke="none"/>
    </g>
    <g text-rendering="geometricPrecision" stroke-miterlimit="1.45" shape-rendering="geometricPrecision" transform="matrix(1,0,0,1,-384,-62)" stroke-linecap="butt">
      <ellipse rx="40" fill="none" ry="20" clip-path="url(#clipPath2)" cx="439" cy="117"/>
      <text x="423.9912" xml:space="preserve" y="121.7139" clip-path="url(#clipPath2)" font-family="sans-serif" stroke="none">Algus</text>
    </g>
    <g fill="url(#linearGradient2)" text-rendering="geometricPrecision" shape-rendering="geometricPrecision" transform="matrix(1,0,0,1,-384,-62)" stroke="url(#linearGradient2)">
      <path d="M503.7294 97 L637.4894 97 L637.4894 137 L503.7294 137 Z" stroke="none" clip-path="url(#clipPath2)"/>
    </g>
    <g text-rendering="geometricPrecision" stroke-miterlimit="1.45" shape-rendering="geometricPrecision" transform="matrix(1,0,0,1,-384,-62)" stroke-linecap="butt">
      <path fill="none" d="M503.7294 97 L637.4894 97 L637.4894 137 L503.7294 137 Z" clip-path="url(#clipPath2)"/>
      <text x="512.5811" xml:space="preserve" y="114.3633" clip-path="url(#clipPath2)" font-family="sans-serif" stroke="none">Leia mahuti keskmine</text>
      <text x="527.5899" xml:space="preserve" y="129.0645" clip-path="url(#clipPath2)" font-family="sans-serif" stroke="none">sisetemperatuur</text>
    </g>
    <g fill="url(#linearGradient3)" text-rendering="geometricPrecision" shape-rendering="geometricPrecision" transform="matrix(1,0,0,1,-384,-62)" stroke="url(#linearGradient3)">
      <path d="M662.2188 93.392 L795.9788 93.392 L795.9788 148.24 L662.2188 148.24 Z" stroke="none" clip-path="url(#clipPath2)"/>
    </g>
    <g text-rendering="geometricPrecision" stroke-miterlimit="1.45" shape-rendering="geometricPrecision" transform="matrix(1,0,0,1,-384,-62)" stroke-linecap="butt">
      <path fill="none" d="M662.2188 93.392 L795.9788 93.392 L795.9788 148.24 L662.2188 148.24 Z" clip-path="url(#clipPath2)"/>
      <text x="676.4113" xml:space="preserve" y="110.8287" clip-path="url(#clipPath2)" font-family="sans-serif" stroke="none">Leia keskmine sise-</text>
      <text x="682.0744" xml:space="preserve" y="125.5299" clip-path="url(#clipPath2)" font-family="sans-serif" stroke="none">ja väliskeskkonna</text>
      <text x="674.0646" xml:space="preserve" y="140.231" clip-path="url(#clipPath2)" font-family="sans-serif" stroke="none">temperatuuride vahe</text>
    </g>
    <g fill="url(#linearGradient4)" text-rendering="geometricPrecision" shape-rendering="geometricPrecision" transform="matrix(1,0,0,1,-384,-62)" stroke="url(#linearGradient4)">
      <path d="M820.7083 78.78 L954.4683 78.78 L954.4683 162.852 L820.7083 162.852 Z" stroke="none" clip-path="url(#clipPath2)"/>
    </g>
    <g text-rendering="geometricPrecision" stroke-miterlimit="1.45" shape-rendering="geometricPrecision" transform="matrix(1,0,0,1,-384,-62)" stroke-linecap="butt">
      <path fill="none" d="M820.7083 78.78 L954.4683 78.78 L954.4683 162.852 L820.7083 162.852 Z" clip-path="url(#clipPath2)"/>
      <text x="843.5756" xml:space="preserve" y="96.1275" clip-path="url(#clipPath2)" font-family="sans-serif" stroke="none">Arvuta keskmise</text>
      <text x="832.5541" xml:space="preserve" y="110.8287" clip-path="url(#clipPath2)" font-family="sans-serif" stroke="none">temperatuuride vahe</text>
      <text x="842.8871" xml:space="preserve" y="125.5299" clip-path="url(#clipPath2)" font-family="sans-serif" stroke="none">põhjal ligikaudne</text>
      <text x="855.2357" xml:space="preserve" y="140.231" clip-path="url(#clipPath2)" font-family="sans-serif" stroke="none">jahtumisaeg</text>
      <text x="826.4808" xml:space="preserve" y="154.9322" clip-path="url(#clipPath2)" font-family="sans-serif" stroke="none">t = E / (S / R × ∆T + P)</text>
    </g>
    <g fill="url(#linearGradient5)" text-rendering="geometricPrecision" shape-rendering="geometricPrecision" transform="matrix(1,0,0,1,-384,-62)" stroke="url(#linearGradient5)">
      <path d="M984.4683 93.392 L1118.2283 93.392 L1118.2283 148.24 L984.4683 148.24 Z" stroke="none" clip-path="url(#clipPath2)"/>
    </g>
    <g text-rendering="geometricPrecision" stroke-miterlimit="1.45" shape-rendering="geometricPrecision" transform="matrix(1,0,0,1,-384,-62)" stroke-linecap="butt">
      <path fill="none" d="M984.4683 93.392 L1118.2283 93.392 L1118.2283 148.24 L984.4683 148.24 Z" clip-path="url(#clipPath2)"/>
      <text x="1004.318" xml:space="preserve" y="110.8287" clip-path="url(#clipPath2)" font-family="sans-serif" stroke="none">Jaga jahtumisaeg</text>
      <text x="1008.6656" xml:space="preserve" y="125.5299" clip-path="url(#clipPath2)" font-family="sans-serif" stroke="none">sajaks võrdseks</text>
      <text x="1023.9996" xml:space="preserve" y="140.231" clip-path="url(#clipPath2)" font-family="sans-serif" stroke="none">perioodiks</text>
    </g>
    <g fill="url(#linearGradient6)" text-rendering="geometricPrecision" shape-rendering="geometricPrecision" transform="matrix(1,0,0,1,-384,-62)" stroke="url(#linearGradient6)">
      <path d="M1148.2283 77.008 L1281.9883 77.008 L1281.9883 164.624 L1148.2283 164.624 Z" stroke="none" clip-path="url(#clipPath2)"/>
    </g>
    <g text-rendering="geometricPrecision" stroke-miterlimit="1.45" shape-rendering="geometricPrecision" transform="matrix(1,0,0,1,-384,-62)" stroke-linecap="butt">
      <path fill="none" d="M1148.2283 77.008 L1281.9883 77.008 L1281.9883 164.624 L1148.2283 164.624 Z" clip-path="url(#clipPath2)"/>
      <text x="1166.4198" xml:space="preserve" y="96.1275" clip-path="url(#clipPath2)" font-family="sans-serif" stroke="none">Tee 150-liikmeline</text>
      <text x="1169.7509" xml:space="preserve" y="110.8287" clip-path="url(#clipPath2)" font-family="sans-serif" stroke="none">andmejada, mille</text>
      <text x="1157.08" xml:space="preserve" y="125.5299" clip-path="url(#clipPath2)" font-family="sans-serif" stroke="none">liikmete algne väärtus</text>
      <text x="1170.076" xml:space="preserve" y="140.231" clip-path="url(#clipPath2)" font-family="sans-serif" stroke="none">on sajandik kogu</text>
      <text x="1154.0741" xml:space="preserve" y="154.9322" clip-path="url(#clipPath2)" font-family="sans-serif" stroke="none">temperatuuri langusest</text>
    </g>
    <g fill="url(#linearGradient7)" text-rendering="geometricPrecision" shape-rendering="geometricPrecision" transform="matrix(1,0,0,1,-384,-62)" stroke="url(#linearGradient7)">
      <path d="M1148.2283 245.872 L1281.9883 245.872 L1281.9883 304.56 L1148.2283 304.56 Z" stroke="none" clip-path="url(#clipPath2)"/>
    </g>
    <g text-rendering="geometricPrecision" stroke-miterlimit="1.45" shape-rendering="geometricPrecision" transform="matrix(1,0,0,1,-384,-62)" stroke-linecap="butt">
      <path fill="none" d="M1148.2283 245.872 L1281.9883 245.872 L1281.9883 304.56 L1148.2283 304.56 Z" clip-path="url(#clipPath2)"/>
      <text x="1166.2469" xml:space="preserve" y="265.2287" clip-path="url(#clipPath2)" font-family="sans-serif" stroke="none">uus temperatuur =</text>
      <text x="1169.745" xml:space="preserve" y="279.9299" clip-path="url(#clipPath2)" font-family="sans-serif" stroke="none">paagi algne sise-</text>
      <text x="1182.7587" xml:space="preserve" y="294.631" clip-path="url(#clipPath2)" font-family="sans-serif" stroke="none">temperatuur</text>
    </g>
    <g fill="url(#linearGradient8)" text-rendering="geometricPrecision" shape-rendering="geometricPrecision" transform="matrix(1,0,0,1,-384,-62)" stroke="url(#linearGradient8)">
      <path d="M1148.2283 194.624 L1281.9883 194.624 L1281.9883 215.872 L1148.2283 215.872 Z" stroke="none" clip-path="url(#clipPath2)"/>
    </g>
    <g text-rendering="geometricPrecision" stroke-miterlimit="1.45" shape-rendering="geometricPrecision" transform="matrix(1,0,0,1,-384,-62)" stroke-linecap="butt">
      <path fill="none" d="M1148.2283 194.624 L1281.9883 194.624 L1281.9883 215.872 L1148.2283 215.872 Z" clip-path="url(#clipPath2)"/>
      <text x="1201.5966" xml:space="preserve" y="209.9619" clip-path="url(#clipPath2)" font-family="sans-serif" stroke="none">n = 0</text>
    </g>
    <g fill="url(#linearGradient9)" text-rendering="geometricPrecision" shape-rendering="geometricPrecision" transform="matrix(1,0,0,1,-384,-62)" stroke="url(#linearGradient9)">
      <path d="M984.4683 232.5549 L1118.2283 232.5549 L1118.2283 317.8771 L984.4683 317.8771 Z" stroke="none" clip-path="url(#clipPath2)"/>
    </g>
    <g text-rendering="geometricPrecision" stroke-miterlimit="1.45" shape-rendering="geometricPrecision" transform="matrix(1,0,0,1,-384,-62)" stroke-linecap="butt">
      <path fill="none" d="M984.4683 232.5549 L1118.2283 232.5549 L1118.2283 317.8771 L984.4683 317.8771 Z" clip-path="url(#clipPath2)"/>
      <text x="1012.9957" xml:space="preserve" y="250.5275" clip-path="url(#clipPath2)" font-family="sans-serif" stroke="none">Leia keskmine</text>
      <text x="990.9791" xml:space="preserve" y="265.2287" clip-path="url(#clipPath2)" font-family="sans-serif" stroke="none">temperatuur perioodi n</text>
      <text x="1032.6715" xml:space="preserve" y="279.9299" clip-path="url(#clipPath2)" font-family="sans-serif" stroke="none">jooksul</text>
      <text x="991.984" xml:space="preserve" y="294.631" clip-path="url(#clipPath2)" font-family="sans-serif" stroke="none">T = uus temperatuur +</text>
      <text x="999.6569" xml:space="preserve" y="309.3322" clip-path="url(#clipPath2)" font-family="sans-serif" stroke="none">(jada väärtus[n] / 2)</text>
    </g>
    <g fill="url(#linearGradient10)" text-rendering="geometricPrecision" shape-rendering="geometricPrecision" transform="matrix(1,0,0,1,-384,-62)" stroke="url(#linearGradient10)">
      <path d="M820.7083 247.792 L954.4683 247.792 L954.4683 302.64 L820.7083 302.64 Z" stroke="none" clip-path="url(#clipPath2)"/>
    </g>
    <g text-rendering="geometricPrecision" stroke-miterlimit="1.45" shape-rendering="geometricPrecision" transform="matrix(1,0,0,1,-384,-62)" stroke-linecap="butt">
      <path fill="none" d="M820.7083 247.792 L954.4683 247.792 L954.4683 302.64 L820.7083 302.64 Z" clip-path="url(#clipPath2)"/>
      <text x="827.8812" xml:space="preserve" y="265.2287" clip-path="url(#clipPath2)" font-family="sans-serif" stroke="none">Leia perioodi n jooksul</text>
      <text x="829.5511" xml:space="preserve" y="279.9299" clip-path="url(#clipPath2)" font-family="sans-serif" stroke="none">paagist väljuv energia</text>
      <text x="871.5775" xml:space="preserve" y="294.631" clip-path="url(#clipPath2)" font-family="sans-serif" stroke="none">kogus</text>
    </g>
    <g fill="url(#linearGradient11)" text-rendering="geometricPrecision" shape-rendering="geometricPrecision" transform="matrix(1,0,0,1,-384,-62)" stroke="url(#linearGradient11)">
      <path d="M656.9482 239.6 L790.7083 239.6 L790.7083 310.832 L656.9482 310.832 Z" stroke="none" clip-path="url(#clipPath2)"/>
    </g>
    <g text-rendering="geometricPrecision" stroke-miterlimit="1.45" shape-rendering="geometricPrecision" transform="matrix(1,0,0,1,-384,-62)" stroke-linecap="butt">
      <path fill="none" d="M656.9482 239.6 L790.7083 239.6 L790.7083 310.832 L656.9482 310.832 Z" clip-path="url(#clipPath2)"/>
      <text x="681.8019" xml:space="preserve" y="257.8781" clip-path="url(#clipPath2)" font-family="sans-serif" stroke="none">Leia paagi sise-</text>
      <text x="670.798" xml:space="preserve" y="272.5793" clip-path="url(#clipPath2)" font-family="sans-serif" stroke="none">temperatuuri langus</text>
      <text x="668.0441" xml:space="preserve" y="287.2805" clip-path="url(#clipPath2)" font-family="sans-serif" stroke="none">∆T = väljuv energia /</text>
      <text x="703.3292" xml:space="preserve" y="301.9816" clip-path="url(#clipPath2)" font-family="sans-serif" stroke="none">(m × c) </text>
    </g>
    <g fill="url(#linearGradient12)" text-rendering="geometricPrecision" shape-rendering="geometricPrecision" transform="matrix(1,0,0,1,-384,-62)" stroke="url(#linearGradient12)">
      <path d="M493.1883 264.592 L626.9482 264.592 L626.9482 285.84 L493.1883 285.84 Z" stroke="none" clip-path="url(#clipPath2)"/>
    </g>
    <g text-rendering="geometricPrecision" stroke-miterlimit="1.45" shape-rendering="geometricPrecision" transform="matrix(1,0,0,1,-384,-62)" stroke-linecap="butt">
      <path fill="none" d="M493.1883 264.592 L626.9482 264.592 L626.9482 285.84 L493.1883 285.84 Z" clip-path="url(#clipPath2)"/>
      <text x="505.2831" xml:space="preserve" y="279.9299" clip-path="url(#clipPath2)" font-family="sans-serif" stroke="none">jada väärtus[n] = ∆T</text>
    </g>
    <g fill="url(#linearGradient13)" text-rendering="geometricPrecision" shape-rendering="geometricPrecision" transform="matrix(1,0,0,1,-384,-62)" stroke="url(#linearGradient13)">
      <path d="M560.0682 315.84 L624.762 348.1869 L560.0682 380.5338 L495.3745 348.1869 Z" stroke="none" clip-path="url(#clipPath2)"/>
    </g>
    <g text-rendering="geometricPrecision" stroke-miterlimit="1.45" shape-rendering="geometricPrecision" transform="matrix(1,0,0,1,-384,-62)" stroke-linecap="butt">
      <path fill="none" d="M560.0682 315.84 L624.762 348.1869 L560.0682 380.5338 L495.3745 348.1869 Z" clip-path="url(#clipPath2)"/>
      <text x="523.0428" xml:space="preserve" y="352.9008" clip-path="url(#clipPath2)" font-family="sans-serif" stroke="none">Kordusi on 3?</text>
    </g>
    <g fill="url(#linearGradient14)" text-rendering="geometricPrecision" shape-rendering="geometricPrecision" transform="matrix(1,0,0,1,-384,-62)" stroke="url(#linearGradient14)">
      <path d="M656.9482 429.2538 L790.7083 429.2538 L790.7083 450.5018 L656.9482 450.5018 Z" stroke="none" clip-path="url(#clipPath2)"/>
    </g>
    <g text-rendering="geometricPrecision" stroke-miterlimit="1.45" shape-rendering="geometricPrecision" transform="matrix(1,0,0,1,-384,-62)" stroke-linecap="butt">
      <path fill="none" d="M656.9482 429.2538 L790.7083 429.2538 L790.7083 450.5018 L656.9482 450.5018 Z" clip-path="url(#clipPath2)"/>
      <text x="700.1417" xml:space="preserve" y="444.5916" clip-path="url(#clipPath2)" font-family="sans-serif" stroke="none">n = n + 1</text>
    </g>
    <g fill="url(#linearGradient15)" text-rendering="geometricPrecision" shape-rendering="geometricPrecision" transform="matrix(1,0,0,1,-384,-62)" stroke="url(#linearGradient15)">
      <path d="M493.1883 410.5338 L626.9482 410.5338 L626.9482 469.2218 L493.1883 469.2218 Z" stroke="none" clip-path="url(#clipPath2)"/>
    </g>
    <g text-rendering="geometricPrecision" stroke-miterlimit="1.45" shape-rendering="geometricPrecision" transform="matrix(1,0,0,1,-384,-62)" stroke-linecap="butt">
      <path fill="none" d="M493.1883 410.5338 L626.9482 410.5338 L626.9482 469.2218 L493.1883 469.2218 Z" clip-path="url(#clipPath2)"/>
      <text x="511.2069" xml:space="preserve" y="437.241" clip-path="url(#clipPath2)" font-family="sans-serif" stroke="none">uus temperatuur =</text>
      <text x="500.9501" xml:space="preserve" y="451.9422" clip-path="url(#clipPath2)" font-family="sans-serif" stroke="none">uus temperatuur + ∆T</text>
    </g>
    <g fill="url(#linearGradient16)" text-rendering="geometricPrecision" shape-rendering="geometricPrecision" transform="matrix(1,0,0,1,-384,-62)" stroke="url(#linearGradient16)">
      <path d="M923.9044 388.2797 L1027.1006 439.8777 L923.9044 491.4758 L820.7083 439.8777 Z" stroke="none" clip-path="url(#clipPath2)"/>
    </g>
    <g text-rendering="geometricPrecision" stroke-miterlimit="1.45" shape-rendering="geometricPrecision" transform="matrix(1,0,0,1,-384,-62)" stroke-linecap="butt">
      <path fill="none" d="M923.9044 388.2797 L1027.1006 439.8777 L923.9044 491.4758 L820.7083 439.8777 Z" clip-path="url(#clipPath2)"/>
      <text x="875.0431" xml:space="preserve" y="437.241" clip-path="url(#clipPath2)" font-family="sans-serif" stroke="none">uus temperatuur &lt;</text>
      <text x="848.1925" xml:space="preserve" y="451.9422" clip-path="url(#clipPath2)" font-family="sans-serif" stroke="none">sisestatud lõpptemperatuur?</text>
    </g>
    <g fill="url(#linearGradient17)" text-rendering="geometricPrecision" shape-rendering="geometricPrecision" transform="matrix(1,0,0,1,-384,-62)" stroke="url(#linearGradient17)">
      <ellipse rx="40" ry="20" clip-path="url(#clipPath2)" cx="923.9044" cy="541.4758" stroke="none"/>
    </g>
    <g text-rendering="geometricPrecision" stroke-miterlimit="1.45" shape-rendering="geometricPrecision" transform="matrix(1,0,0,1,-384,-62)" stroke-linecap="butt">
      <ellipse rx="40" fill="none" ry="20" clip-path="url(#clipPath2)" cx="923.9044" cy="541.4758"/>
      <text x="910.5568" xml:space="preserve" y="546.1897" clip-path="url(#clipPath2)" font-family="sans-serif" stroke="none">Lõpp</text>
    </g>
    <g text-rendering="geometricPrecision" stroke-miterlimit="1.45" shape-rendering="geometricPrecision" transform="matrix(1,0,0,1,-384,-62)" stroke-linecap="butt">
      <path fill="none" d="M479.0034 117 L495.7388 117" clip-path="url(#clipPath2)"/>
    </g>
    <g text-rendering="geometricPrecision" stroke-miterlimit="1.45" shape-rendering="geometricPrecision" transform="matrix(1,0,0,1,-384,-62)" stroke-linecap="butt">
      <path d="M503.7388 117 L491.7388 112 L494.7388 117 L491.7388 122 Z" stroke="none" clip-path="url(#clipPath2)"/>
      <path fill="none" d="M637.5109 118.6108 L654.2437 119.0137" clip-path="url(#clipPath2)"/>
      <path d="M662.2414 119.2063 L650.3652 113.9189 L653.244 118.9896 L650.1245 123.916 Z" clip-path="url(#clipPath2)" stroke="none"/>
      <path fill="none" d="M796.0002 120.816 L812.7308 120.816" clip-path="url(#clipPath2)"/>
      <path d="M820.7308 120.816 L808.7308 115.816 L811.7308 120.816 L808.7308 125.816 Z" clip-path="url(#clipPath2)" stroke="none"/>
      <path fill="none" d="M954.4756 120.816 L976.5118 120.816" clip-path="url(#clipPath2)"/>
      <path d="M984.5118 120.816 L972.5118 115.816 L975.5118 120.816 L972.5118 125.816 Z" clip-path="url(#clipPath2)" stroke="none"/>
      <path fill="none" d="M1118.2356 120.816 L1140.2717 120.816" clip-path="url(#clipPath2)"/>
      <path d="M1148.2717 120.816 L1136.2717 115.816 L1139.2717 120.816 L1136.2717 125.816 Z" clip-path="url(#clipPath2)" stroke="none"/>
      <path fill="none" d="M1215.1083 164.6398 L1215.1083 186.6597" clip-path="url(#clipPath2)"/>
      <path d="M1215.1083 194.6597 L1220.1083 182.6597 L1215.1083 185.6597 L1210.1083 182.6597 Z" clip-path="url(#clipPath2)" stroke="none"/>
      <path fill="none" d="M1215.1083 215.873 L1215.1083 237.8633" clip-path="url(#clipPath2)"/>
      <path d="M1215.1083 245.8633 L1220.1083 233.8633 L1215.1083 236.8633 L1210.1083 233.8633 Z" clip-path="url(#clipPath2)" stroke="none"/>
      <path fill="none" d="M1148.2209 275.216 L1126.1847 275.216" clip-path="url(#clipPath2)"/>
      <path d="M1118.1847 275.216 L1130.1847 280.216 L1127.1847 275.216 L1130.1847 270.216 Z" clip-path="url(#clipPath2)" stroke="none"/>
      <path fill="none" d="M984.4609 275.216 L962.4247 275.216" clip-path="url(#clipPath2)"/>
      <path d="M954.4247 275.216 L966.4247 280.216 L963.4247 275.216 L966.4247 270.216 Z" clip-path="url(#clipPath2)" stroke="none"/>
      <path fill="none" d="M820.7009 275.216 L798.6647 275.216" clip-path="url(#clipPath2)"/>
      <path d="M790.6647 275.216 L802.6647 280.216 L799.6647 275.216 L802.6647 270.216 Z" clip-path="url(#clipPath2)" stroke="none"/>
      <path fill="none" d="M656.9409 275.216 L634.9047 275.216" clip-path="url(#clipPath2)"/>
      <path d="M626.9047 275.216 L638.9047 280.216 L635.9047 275.216 L638.9047 270.216 Z" clip-path="url(#clipPath2)" stroke="none"/>
      <path fill="none" d="M560.0682 285.8695 L560.0682 307.8415" clip-path="url(#clipPath2)"/>
      <path d="M560.0682 315.8415 L565.0682 303.8415 L560.0682 306.8415 L555.0682 303.8415 Z" clip-path="url(#clipPath2)" stroke="none"/>
      <path fill="none" d="M624.7498 348.1869 L1044.6324 348.1869 L1051.3483 348.1869 L1051.3483 325.8655" clip-path="url(#clipPath2)"/>
      <path d="M1051.3483 317.8655 L1046.3483 329.8655 L1051.3483 326.8655 L1056.3483 329.8655 Z" clip-path="url(#clipPath2)" stroke="none"/>
      <text x="656.3903" xml:space="preserve" y="382.9008" clip-path="url(#clipPath2)" font-family="sans-serif" stroke="none">ei</text>
      <path fill="none" d="M560.0682 380.5563 L560.0682 402.5356" clip-path="url(#clipPath2)"/>
      <path d="M560.0682 410.5356 L565.0682 398.5356 L560.0682 401.5356 L555.0682 398.5356 Z" clip-path="url(#clipPath2)" stroke="none"/>
      <text x="582.0614" xml:space="preserve" y="399.5982" clip-path="url(#clipPath2)" font-family="sans-serif" stroke="none">jah</text>
      <path fill="none" d="M626.9556 439.8777 L648.9918 439.8777" clip-path="url(#clipPath2)"/>
      <path d="M656.9918 439.8777 L644.9918 434.8777 L647.9918 439.8777 L644.9918 444.8777 Z" clip-path="url(#clipPath2)" stroke="none"/>
      <path fill="none" d="M790.6994 439.8777 L812.7161 439.8777" clip-path="url(#clipPath2)"/>
      <path d="M820.7161 439.8777 L808.7161 434.8777 L811.7161 439.8777 L808.7161 444.8777 Z" clip-path="url(#clipPath2)" stroke="none"/>
      <path fill="none" d="M1027.1102 439.8777 L1051.3483 439.8777 L1051.3483 325.8726" clip-path="url(#clipPath2)"/>
      <path d="M1051.3483 317.8726 L1046.3483 329.8726 L1051.3483 326.8726 L1056.3483 329.8726 Z" clip-path="url(#clipPath2)" stroke="none"/>
      <text x="1076.6783" xml:space="preserve" y="414.4044" clip-path="url(#clipPath2)" font-family="sans-serif" stroke="none">ei</text>
      <path fill="none" d="M923.9044 491.5201 L923.9044 513.5228" clip-path="url(#clipPath2)"/>
      <path d="M923.9044 521.5228 L928.9044 509.5228 L923.9044 512.5228 L918.9044 509.5228 Z" clip-path="url(#clipPath2)" stroke="none"/>
      <text x="945.8976" xml:space="preserve" y="511.1897" clip-path="url(#clipPath2)" font-family="sans-serif" stroke="none">jah</text>
    </g>
  </g>
</svg>
